<svg viewBox="0 0 900 600" xmlns="http://www.w3.org/2000/svg" xmlns:xlink="http://www.w3.org/1999/xlink" version="1.1"><path d="M0 534L90 519L180 548L270 492L360 508L450 529L540 531L630 506L720 552L810 479L900 510L900 601L810 601L720 601L630 601L540 601L450 601L360 601L270 601L180 601L90 601L0 601Z" fill="#2c9448"></path><path d="M0 521L90 553L180 530L270 574L360 516L450 564L540 574L630 544L720 530L810 582L900 520L900 601L810 601L720 601L630 601L540 601L450 601L360 601L270 601L180 601L90 601L0 601Z" fill="#57c874"></path><path d="M0 541L90 582L180 599L270 546L360 592L450 558L540 568L630 585L720 550L810 578L900 588L900 601L810 601L720 601L630 601L540 601L450 601L360 601L270 601L180 601L90 601L0 601Z" fill="#80ffa2"></path></svg>