<svg xmlns="http://www.w3.org/2000/svg" viewBox="0 0 1440 320"><path fill='hsl(120, 40%, 20%)' fill-opacity="1" d="M0,32L24,64C48,96,96,160,144,170.7C192,181,240,139,288,133.3C336,128,384,160,432,170.7C480,181,528,171,576,181.3C624,192,672,224,720,229.3C768,235,816,213,864,176C912,139,960,85,1008,74.7C1056,64,1104,96,1152,138.7C1200,181,1248,235,1296,256C1344,277,1392,267,1416,261.3L1440,256L1440,320L1416,320C1392,320,1344,320,1296,320C1248,320,1200,320,1152,320C1104,320,1056,320,1008,320C960,320,912,320,864,320C816,320,768,320,720,320C672,320,624,320,576,320C528,320,480,320,432,320C384,320,336,320,288,320C240,320,192,320,144,320C96,320,48,320,24,320L0,320Z"></path></svg>